<?xml version="1.0" encoding="UTF-8"?>
<svg width="436px" height="56px" viewBox="0 0 436 56" version="1.1" xmlns="http://www.w3.org/2000/svg" xmlns:xlink="http://www.w3.org/1999/xlink">
    <!-- Generator: Sketch 47.1 (45422) - http://www.bohemiancoding.com/sketch -->
    <title>star-track</title>
    <desc>Created with Sketch.</desc>
    <defs></defs>
    <g id="Page-1" stroke="none" stroke-width="1" fill="none" fill-rule="evenodd">
        <g id="star-track">
            <path d="M42.7,2.3 C41.8,6.6 40.6,9.7 40.1,13.9 C36.7,13.8 21.6,9.4 20.7,15.8 C20.1,20.4 36.8,24 40.1,28.1 C57,49.5 19.5,65.5 0.7,48.8 C1.2,44 2.2,41.5 3.3,36.5 C9.6,38.8 23.9,47.9 27.8,39.1 C29.2,32.9 11.8,30.9 7.1,25.5 C-3.9,8.2 23.3,-5 42.7,2.3 L42.7,2.3 Z M120.2,1.6 C120.2,1.6 122,14.5 122.8,22.3 C117.7,23.1 114.3,24 109.2,24.9 C109.1,22.1 108.8,21.4 108.6,19.1 C103.7,24.1 100.2,30.8 96.3,36.5 C122.9,28.7 151.4,22.7 184.8,21.6 C183.1,29.6 177.4,33.6 170,35.8 C172,42 175.1,48.4 176.5,55.2 L162.3,55.2 C159.4,49.3 157.8,40.7 155.2,34.5 C153.1,34.9 149.4,35.2 149.4,35.2 C149.4,35.2 145.6,49.4 143.6,55.2 L129.4,55.2 C131.6,47.5 136.5,30 136.5,30 C136.5,30 129.3,31.8 124.9,32.6 C126.1,39.4 126.4,48.3 127.5,55.2 L112.7,55.2 C112.7,55.2 112,43.6 111.4,38.4 C102.9,39.9 87.1,55.2 87.1,55.2 L69.4,55.2 C69.4,55.2 94.1,19.2 105.6,1.6 C110.9,1.9 120.2,1.6 120.2,1.6 L120.2,1.6 Z" id="Shape" fill="#003462"></path>
            <path d="M92.4,1.6 L89.8,13.9 L75,13.9 L62.7,55.2 L48.5,55.2 L59.5,13.9 L44,13.9 L47.2,1.6 L92.4,1.6 Z M184.7,13.9 C168.7,14.5 154.4,16.7 139.5,18.4 C140.7,12.5 142.2,6.9 144,1.6 C161.4,1.9 182.2,-1.2 184.7,13.9 Z" id="Shape" fill="#003462"></path>
            <path d="M281.6,18.4 C268,16.5 250.9,14.8 237.7,13.3 C238.1,10.5 239.4,5.3 239.8,2.3 L267.4,2.3 C275.6,2.3 280.5,9.4 281.6,18.4 L281.6,18.4 Z M234.5,2.3 C233.4,7.3 233.2,9.6 231.9,13.3 C216.2,12.5 199.4,13.1 188,13.3 C188.6,10 190,6.3 191.2,2.3 L234.5,2.3 L234.5,2.3 Z M213.2,21 C212,27 207.1,46.9 205.5,55.2 C202.3,55.6 198,55.1 191.9,55.2 C194.8,45.4 198.3,30.9 201.4,21.6 C204.8,21 208.2,21 213.2,21 L213.2,21 Z" id="Shape" fill="#FFFFFF"></path>
            <path d="M322.9,1.6 L308.7,1.6 L295.8,21.6 L306.1,24.2 L311.3,17.8 L313.3,34.8 C289.3,27.7 252,21.3 234.4,23 C233.3,29.2 226,55.3 226,55.3 L239.6,55.3 L245.4,35.4 L252.2,35.1 L258.3,55.3 L273.2,55.3 C273.2,55.3 267.9,40.4 265.4,34.3 C271.4,33.7 275.9,31 278.3,28.2 C281.5,29.8 288,32.1 288,32.1 C288,32.1 277.8,48.1 273.2,55.4 C277.5,55.7 287.4,55.4 287.4,55.4 L300.3,36.7 L313.9,43.8 L315.2,55.4 L328.8,55.4 L322.9,1.6 L322.9,1.6 Z M435.3,2.3 L420.4,2.3 C412.3,11.2 405.1,18.7 398.5,26.5 C404.2,34.2 412.1,55.2 412.1,55.2 L425,55.2 L411.4,26.5 L435.3,2.3 L435.3,2.3 Z M403.6,2.3 L388.7,55.3 C388.7,55.3 380.5,55.5 376.4,55.3 C380.7,40.1 390.6,2.3 390.6,2.3 L403.6,2.3 Z M383,13 C379.3,16.2 375.7,17.9 371.4,19.7 C366.1,9.2 351.9,14.2 348.2,19.7 C338.3,34.3 352.4,52.1 367.6,38.4 C370.5,41.7 372.7,43.2 375.4,47.1 C365.1,57.6 345.9,58.7 336.6,49.1 C334.6,47 333.6,45.7 332.1,42.4 C322.7,13.3 359.2,-12.1 381.2,9 C383,13 381.9,11 383,13 L383,13 Z" id="Shape" fill="#FFFFFF"></path>
        </g>
    </g>
</svg>
